<svg xmlns="http://www.w3.org/2000/svg" xmlns:xlink="http://www.w3.org/1999/xlink" fill="none" version="1.1" width="97.2919921875" height="20" viewBox="0 0 97.2919921875 20"><defs><clipPath id="master_svg0_0_984"><rect x="0" y="0" width="20" height="20" rx="0"/></clipPath><clipPath id="master_svg1_0_988"><rect x="40" y="0" width="20" height="20" rx="0"/></clipPath></defs><g><g clip-path="url(#master_svg0_0_984)"><g><g><path d="M6.811267144668579,13.941300000000114Q9.34731414466858,13.337500000000114,9.953784144668578,12.998600000000113Q10.56026414466858,12.659700000000115,11.92823414466858,11.291750000000114L16.28978414466858,6.930200000000114L17.45790414466858,5.762070000000113Q18.12480414466858,5.095150000000114,18.12480414466858,4.151990000000113Q18.12480414466858,3.208829000000114,17.45790414466858,2.5419148000001135Q16.791004144668577,1.8750000000001137,15.84784414466858,1.8750000000001137Q14.904684144668579,1.8750000000001137,14.237764144668578,2.5419161000001136L8.708084144668579,8.071600000000114Q7.340112144668579,9.439570000000113,7.001216144668579,10.046050000000115Q6.662320814668579,10.652520000000115,6.058501144668579,13.188600000000113Q6.044243144668579,13.248400000000114,6.041942144668579,13.310000000000114Q6.039640144668579,13.371500000000113,6.049384144668579,13.432300000000113Q6.0591271446685795,13.493000000000114,6.080542144668579,13.550800000000114Q6.101956144668579,13.608500000000113,6.134218144668579,13.660900000000114Q6.166480144668579,13.713300000000114,6.2083491446685795,13.758400000000114Q6.250219144668579,13.803600000000113,6.300088144668579,13.839700000000114Q6.349956144668579,13.875700000000114,6.405907144668579,13.901400000000114Q6.461858144668579,13.927100000000113,6.521741144668579,13.941300000000114Q6.666504144668579,13.975800000000113,6.811267144668579,13.941300000000114ZM11.044354144668578,10.407870000000113Q9.799064144668579,11.653160000000113,9.34403414466858,11.907430000000113Q8.994914144668579,12.102510000000114,7.520124144668579,12.479710000000114Q7.897324144668579,11.004920000000114,8.09240414466858,10.655800000000113Q8.34667414466858,10.200780000000114,9.59196414466858,8.955490000000115L13.511574144668579,5.035870000000114L14.963964144668578,6.488260000000114L11.044354144668578,10.407870000000113ZM15.84784414466858,5.604380000000114L16.57403414466858,4.878180000000114Q16.87480414466858,4.5773800000001135,16.87480414466858,4.151990000000113Q16.87480414466858,3.7266000000001136,16.57403414466858,3.4257990000001137Q16.273234144668578,3.1250000000001137,15.84784414466858,3.1250000000001137Q15.42245414466858,3.1250000000001137,15.121654144668579,3.4257990000001137L14.39546414466858,4.151990000000113L15.84784414466858,5.604380000000114Z" fill-rule="evenodd" fill="#141B34" fill-opacity="1"/></g><g><path d="M5.968428699264527,3.25672Q6.948158699264527,3.125,9.999918699264526,3.125Q10.061478699264526,3.125,10.121848699264525,3.112991Q10.182218699264526,3.100982,10.239098699264527,3.077425Q10.295968699264527,3.053868,10.347148699264526,3.0196680000000002Q10.398328699264527,2.985469,10.441858699264525,2.941942Q10.485388699264526,2.898414,10.519588699264526,2.847231Q10.553788699264526,2.796048,10.577338699264526,2.739177Q10.600898699264526,2.682306,10.612908699264526,2.621931Q10.624918699264526,2.5615571,10.624918699264526,2.5Q10.624918699264526,2.4384429,10.612908699264526,2.378069Q10.600898699264526,2.317694,10.577338699264526,2.260823Q10.553788699264526,2.203952,10.519588699264526,2.152769Q10.485388699264526,2.101586,10.441858699264525,2.058058Q10.398328699264527,2.014531,10.347148699264526,1.980332Q10.295968699264527,1.946132,10.239098699264527,1.9225750000000001Q10.182218699264526,1.8990179999999999,10.121848699264525,1.887009Q10.061478699264526,1.875,9.999918699264526,1.875Q6.8644986992645265,1.875,5.801868699264526,2.017867Q4.060788699264526,2.25195,3.1563266992645262,3.156408Q2.2518686992645263,4.0608699999999995,2.0177856992645262,5.80195Q1.8749186992645264,6.86458,1.8749186992645264,10Q1.8749186992645264,13.1354,2.0177856992645262,14.198Q2.2518676992645266,15.9391,3.1563266992645262,16.843600000000002Q4.060788699264526,17.7481,5.801868699264526,17.982100000000003Q6.8644986992645265,18.125,9.999918699264526,18.125Q13.135318699264527,18.125,14.197918699264527,17.982100000000003Q15.939018699264526,17.7481,16.84351869926453,16.843600000000002Q17.748018699264527,15.9391,17.98201869926453,14.198Q18.124918699264526,13.1357,18.124918699264526,10.00155L18.124918699264526,10Q18.124918699264526,9.93844,18.112918699264526,9.878070000000001Q18.100918699264525,9.817689999999999,18.077318699264527,9.760819999999999Q18.053818699264525,9.703949999999999,18.019618699264527,9.65277Q17.985418699264528,9.60158,17.941818699264527,9.558060000000001Q17.89831869926453,9.51453,17.847118699264527,9.48033Q17.795918699264526,9.44613,17.739118699264527,9.42257Q17.682218699264524,9.39902,17.621818699264526,9.38701Q17.561518699264525,9.375,17.499918699264526,9.375Q17.438318699264528,9.375,17.378018699264526,9.38701Q17.31761869926453,9.39902,17.260718699264526,9.42257Q17.203818699264527,9.44613,17.152718699264526,9.48033Q17.101518699264524,9.51453,17.058018699264526,9.558060000000001Q17.014418699264525,9.60158,16.980218699264526,9.65277Q16.946018699264528,9.703949999999999,16.922518699264526,9.760819999999999Q16.898918699264527,9.817689999999999,16.886918699264527,9.878070000000001Q16.874918699264526,9.93844,16.874918699264526,10Q16.874918699264526,13.0518,16.743218699264524,14.0315Q16.565418699264526,15.3539,15.959618699264526,15.9597Q15.353818699264526,16.5655,14.031418699264526,16.743299999999998Q13.051718699264526,16.875,9.999918699264526,16.875Q6.948148699264526,16.875,5.968428699264527,16.743299999999998Q4.645978699264527,16.5655,4.040208699264526,15.9597Q3.4344376992645262,15.3539,3.2566386992645264,14.0315Q3.1249186992645264,13.0518,3.1249186992645264,10Q3.1249186992645264,6.94823,3.2566386992645264,5.96851Q3.4344376992645262,4.64606,4.040208699264526,4.04029Q4.645978699264527,3.434519,5.968428699264527,3.25672Z" fill-rule="evenodd" fill="#141B34" fill-opacity="1"/></g></g></g><g transform="matrix(1,4.512508204795385e-16,-2.395031980475837e-16,1,0,-1.805003281918154e-14)" clip-path="url(#master_svg1_0_988)"><g transform="matrix(1,0,-2.9582285121282294e-32,1,0,0)"><g transform="matrix(1,0,-2.9582285121282294e-32,1,0,0)"><path d="M49.67321432022095,6.972112013580322Q48.442719320220945,7.137548013580322,47.78996632022095,7.790301013580322L47.78996632022095,7.790301013580322Q47.137213320220944,8.443054013580323,46.971777320220944,9.673550013580321Q46.87467432022095,10.395790013580323,46.87467432022095,12.500010013580322L46.87467432022095,13.333340013580322Q46.87467432022095,15.437560013580322,46.97177632022095,16.159800013580323Q47.13721232022095,17.390300013580323,47.78996532022095,18.04301001358032Q48.442719320220945,18.69581001358032,49.67321432022095,18.861210013580322Q50.39545432022095,18.958310013580324,52.49967432022095,18.958310013580324L53.33300432022095,18.958310013580324Q55.437234320220945,18.958310013580324,56.15946432022095,18.861210013580322Q57.38996432022095,18.69581001358032,58.04267432022095,18.04301001358032Q58.695474320220946,17.390300013580323,58.860874320220944,16.159800013580323Q58.95797432022095,15.437570013580324,58.95797432022095,13.333340013580322L58.95797432022095,12.500010013580322Q58.95797432022095,10.395790013580323,58.860874320220944,9.673550013580321Q58.695474320220946,8.443056013580323,58.04267432022095,7.790302013580322Q57.38996432022095,7.137549013580323,56.15946432022095,6.972113013580322Q55.437234320220945,6.875010013580322,53.33300432022095,6.875010013580322L52.49967432022095,6.875010013580322Q50.39545432022095,6.875010013580322,49.67321432022095,6.972112013580322ZM48.21063032022095,9.840110013580322Q48.319782320220945,9.028250013580323,48.67385432022095,8.674180013580322Q49.027914320220944,8.320117013580322,49.83977432022095,8.210966013580322Q50.47910432022095,8.125010013580322,52.49967432022095,8.125010013580322L53.33300432022095,8.125010013580322Q55.35357432022095,8.125010013580322,55.992904320220944,8.210966013580322Q56.80476432022095,8.320118013580322,57.15883432022095,8.674180013580322Q57.512874320220945,9.028250013580323,57.622074320220946,9.840110013580322Q57.70797432022095,10.479440013580323,57.70797432022095,12.500010013580322L57.70797432022095,13.333340013580322Q57.70797432022095,15.353910013580322,57.622074320220946,15.993240013580323Q57.512874320220945,16.805100013580322,57.15883432022095,17.159170013580322Q56.80476432022095,17.51321001358032,55.992904320220944,17.62241001358032Q55.35357432022095,17.708310013580324,53.33300432022095,17.708310013580324L52.49967432022095,17.708310013580324Q50.47910432022095,17.708310013580324,49.83977432022095,17.62241001358032Q49.027914320220944,17.51321001358032,48.673844320220944,17.159170013580322Q48.31978132022095,16.805100013580322,48.21063032022095,15.993240013580323Q48.12467432022095,15.353910013580322,48.12467432022095,13.333340013580322L48.12467432022095,12.500010013580322Q48.12467432022095,10.479440013580323,48.21063032022095,9.840110013580322Z" fill-rule="evenodd" fill="#141B34" fill-opacity="1"/></g><g transform="matrix(1,0,-2.9582285121282294e-32,1,0,0)"><path d="M44.51254106636048,14.675976759719848Q45.35802106636047,14.78987675971985,47.49918106636047,14.791576759719849L47.49967106636048,14.791576759719849Q47.56123106636048,14.791576759719849,47.621601066360476,14.779576759719848Q47.68198106636047,14.767576759719848,47.738851066360475,14.743976759719848Q47.79572106636047,14.72047675971985,47.84690106636047,14.68627675971985Q47.89809106636047,14.652076759719849,47.941621066360476,14.60847675971985Q47.98514106636048,14.56497675971985,48.019341066360475,14.513776759719848Q48.053541066360474,14.462576759719848,48.07710106636047,14.40577675971985Q48.10065106636047,14.348876759719849,48.112661066360474,14.288476759719849Q48.12467106636048,14.22807675971985,48.12467106636048,14.166576759719849Q48.12467106636048,14.105076759719848,48.11268106636047,14.044676759719849Q48.10068106636047,13.984376759719849,48.07715106636047,13.927476759719848Q48.053611066360475,13.87067675971985,48.019451066360475,13.819476759719848Q47.98528106636047,13.768276759719848,47.94179106636047,13.724776759719848Q47.898301066360474,13.681276759719848,47.84716106636047,13.647076759719848Q47.796021066360474,13.612876759719848,47.739191066360476,13.589276759719848Q47.68236106636047,13.565676759719848,47.62203106636047,13.553676759719849Q47.561691066360474,13.541576759719849,47.50017106636047,13.541576759719849Q45.442331066360474,13.539976759719849,44.67947106636047,13.437176759719849Q43.75075106636047,13.31197675971985,43.281521066360476,12.926876759719848Q43.07532106636047,12.757676759719848,42.90610106636047,12.551476759719849Q42.50199006636047,12.059076759719849,42.38159906636047,11.040566759719848Q42.291341066360474,10.276986759719849,42.291341066360474,7.916676759719849Q42.291341066360474,5.5563667597198485,42.38159906636047,4.792786759719849Q42.50199006636047,3.7742767597198488,42.90610106636047,3.2818667597198488Q43.07533106636048,3.075666759719849,43.28153106636047,2.9064367597198486Q43.77394106636047,2.5023257597198487,44.79245106636047,2.3819347597198486Q45.556031066360475,2.2916767597198486,47.916341066360474,2.2916767597198486Q50.27665106636047,2.2916767597198486,51.04023106636048,2.3819347597198486Q52.058741066360476,2.5023257597198487,52.55114106636047,2.9064367597198486Q52.757341066360475,3.075666759719849,52.92654106636047,3.2818667597198488Q53.31164106636047,3.751096759719849,53.43684106636047,4.679806759719849Q53.539641066360474,5.442656759719849,53.54124106636047,7.5005067597198485Q53.54124106636047,7.562026759719848,53.553341066360474,7.622366759719848Q53.565341066360475,7.682696759719849,53.588941066360476,7.7395267597198485Q53.61254106636047,7.796356759719848,53.64674106636048,7.847496759719848Q53.680941066360475,7.898636759719849,53.72444106636047,7.942126759719849Q53.768041066360475,7.985616759719848,53.81914106636047,8.01978675971985Q53.870341066360474,8.05394675971985,53.92714106636048,8.077476759719849Q53.984041066360476,8.101016759719847,54.044341066360474,8.113016759719848Q54.104741066360475,8.125006759719849,54.16624106636047,8.125006759719849Q54.227841066360476,8.125006759719849,54.288141066360474,8.112996759719849Q54.348541066360475,8.100986759719849,54.405441066360474,8.077436759719848Q54.46224106636048,8.053876759719849,54.51344106636047,8.019676759719848Q54.56464106636047,7.985476759719849,54.608141066360474,7.941956759719849Q54.65174106636047,7.8984267597198485,54.68594106636047,7.8472367597198485Q54.720141066360476,7.796056759719849,54.743641066360475,7.739186759719849Q54.76724106636047,7.682316759719849,54.77924106636047,7.621936759719849Q54.79124106636047,7.561566759719849,54.79124106636047,7.500006759719849L54.79124106636047,7.499516759719849Q54.78954106636047,5.358346759719849,54.67564106636047,4.512876759719848Q54.503041066360474,3.2324367597198487,53.892841066360475,2.4888707597198487Q53.64554106636047,2.1874977597198484,53.34414106636047,1.9401777597198486Q52.56884106636048,1.3039227597198486,51.18697106636047,1.1405767597198486Q50.35027106636048,1.0416767597198486,47.916341066360474,1.0416767597198486Q45.48241106636047,1.0416767597198486,44.64572106636047,1.1405767597198486Q43.263811066360475,1.3039217597198487,42.48853506636048,1.9401767597198487Q42.18716806636047,2.1875017597198485,41.93984206636048,2.4888707597198487Q41.30358706636047,3.2641467597198486,41.140241066360474,4.646046759719848Q41.041341066360474,5.4827467597198485,41.041341066360474,7.916676759719849Q41.041341066360474,10.350606759719849,41.140241066360474,11.187296759719848Q41.303586066360474,12.569176759719848,41.93984106636047,13.344476759719848Q42.18716506636047,13.64587675971985,42.488533066360475,13.893176759719848Q43.23210106636047,14.503376759719849,44.51254106636048,14.675976759719848Z" fill-rule="evenodd" fill="#141B34" fill-opacity="1"/></g></g></g><g><g><path d="M96.45833587646484,10.000041007995605Q96.45833587646484,9.938481007995605,96.44633587646484,9.878111007995606Q96.43433587646484,9.817731007995604,96.41073587646484,9.760861007995604Q96.38723587646484,9.703991007995604,96.35303587646484,9.652811007995606Q96.31883587646485,9.601621007995606,96.27523587646485,9.558101007995607Q96.23173587646484,9.514571007995606,96.18053587646484,9.480371007995606Q96.12933587646484,9.446171007995606,96.07253587646484,9.422611007995606Q96.01563587646484,9.399061007995606,95.95523587646484,9.387051007995606Q95.89493587646484,9.375041007995605,95.83333587646484,9.375041007995605Q93.27973587646484,9.375041007995605,91.11903587646485,7.214351007995606Q88.95833587646484,5.053661007995606,88.95833587646484,2.5000410079956055Q88.95833587646484,2.4384839079956055,88.94632587646484,2.3781100079956055Q88.93431587646484,2.3177350079956054,88.91075587646485,2.2608640079956053Q88.88720587646485,2.2039930079956056,88.85300587646485,2.1528100079956056Q88.81880587646485,2.1016270079956056,88.77527587646485,2.0580990079956054Q88.73174587646484,2.0145720079956053,88.68056587646484,1.9803730079956054Q88.62938587646484,1.9461730079956054,88.57251587646485,1.9226160079956056Q88.51563587646484,1.8990590079956053,88.45526587646485,1.8870500079956054Q88.39489587646484,1.8750410079956055,88.33333587646484,1.8750410079956055Q88.27177587646484,1.8750410079956055,88.21140587646484,1.8870500079956054Q88.15102587646484,1.8990590079956053,88.09415587646484,1.9226160079956056Q88.03728587646485,1.9461730079956054,87.98610587646485,1.9803730079956054Q87.93491587646484,2.0145720079956053,87.89139587646484,2.0580990079956054Q87.84786587646484,2.1016270079956056,87.81366587646484,2.1528100079956056Q87.77946587646484,2.2039930079956056,87.75590587646485,2.2608640079956053Q87.73235587646485,2.3177350079956054,87.72034587646485,2.3781100079956055Q87.70833587646484,2.4384839079956055,87.70833587646484,2.5000410079956055Q87.70833587646484,5.053661007995606,85.54764587646484,7.214351007995606Q83.38695587646484,9.375041007995605,80.83333587646484,9.375041007995605Q80.77177877646484,9.375041007995605,80.71140487646484,9.387051007995606Q80.65102987646485,9.399061007995606,80.59415887646485,9.422611007995606Q80.53728787646484,9.446171007995606,80.48610487646485,9.480371007995606Q80.43492187646484,9.514571007995606,80.39139387646485,9.558101007995607Q80.34786687646485,9.601621007995606,80.31366787646485,9.652811007995606Q80.27946787646485,9.703991007995604,80.25591087646484,9.760861007995604Q80.23235387646484,9.817731007995604,80.22034487646485,9.878111007995606Q80.20833587646484,9.938481007995605,80.20833587646484,10.000041007995605Q80.20833587646484,10.061601007995606,80.22034487646485,10.121971007995604Q80.23235387646484,10.182341007995605,80.25591087646484,10.239221007995607Q80.27946787646485,10.296091007995607,80.31366787646485,10.347271007995605Q80.34786687646485,10.398451007995606,80.39139387646485,10.441981007995604Q80.43492187646484,10.485511007995605,80.48610487646485,10.519711007995605Q80.53728787646484,10.553911007995605,80.59415887646485,10.577461007995606Q80.65102987646485,10.601021007995605,80.71140487646484,10.613031007995605Q80.77177877646484,10.625041007995605,80.83333587646484,10.625041007995605Q83.38694587646485,10.625041007995605,85.54764587646484,12.785741007995606Q87.70833587646484,14.946441007995606,87.70833587646484,17.500041007995605Q87.70833587646484,17.561641007995604,87.72034587646485,17.621941007995606Q87.73235587646485,17.682341007995603,87.75590587646485,17.739241007995606Q87.77946587646484,17.796041007995605,87.81366587646484,17.847241007995606Q87.84786587646484,17.898441007995608,87.89139587646484,17.941941007995606Q87.93491587646484,17.985541007995607,87.98610587646485,18.019741007995606Q88.03728587646485,18.053941007995604,88.09415587646484,18.077441007995606Q88.15102587646484,18.101041007995605,88.21140587646484,18.113041007995605Q88.27177587646484,18.125041007995605,88.33333587646484,18.125041007995605Q88.39489587646484,18.125041007995605,88.45526587646485,18.113041007995605Q88.51563587646484,18.101041007995605,88.57251587646485,18.077441007995606Q88.62938587646484,18.053941007995604,88.68056587646484,18.019741007995606Q88.73174587646484,17.985541007995607,88.77527587646485,17.941941007995606Q88.81880587646485,17.898441007995608,88.85300587646485,17.847241007995606Q88.88720587646485,17.796041007995605,88.91075587646485,17.739241007995606Q88.93431587646484,17.682341007995603,88.94632587646484,17.621941007995606Q88.95833587646484,17.561641007995604,88.95833587646484,17.500041007995605Q88.95833587646484,14.946441007995606,91.11903587646485,12.785741007995606Q93.27973587646484,10.625041007995605,95.83333587646484,10.625041007995605Q95.89493587646484,10.625041007995605,95.95523587646484,10.613031007995605Q96.01563587646484,10.601021007995605,96.07253587646484,10.577461007995606Q96.12933587646484,10.553911007995605,96.18053587646484,10.519711007995605Q96.23173587646484,10.485511007995605,96.27523587646485,10.441981007995604Q96.31883587646485,10.398451007995606,96.35303587646484,10.347271007995605Q96.38723587646484,10.296091007995607,96.41073587646484,10.239221007995607Q96.43433587646484,10.182341007995605,96.44633587646484,10.121971007995604Q96.45833587646484,10.061601007995606,96.45833587646484,10.000041007995605ZM92.91303587646485,10.000041007995605Q91.50523587646484,9.368361007995606,90.23514587646484,8.098231007995604Q88.96501587646485,6.828101007995605,88.33333587646484,5.420381007995605Q87.70165587646484,6.828101007995605,86.43152587646485,8.098231007995604Q85.16140587646484,9.368361007995606,83.75367587646484,10.000041007995605Q85.16139587646484,10.631721007995605,86.43152587646485,11.901851007995605Q87.70165587646484,13.171941007995606,88.33333587646484,14.579741007995606Q88.96501587646485,13.171941007995606,90.23514587646484,11.901851007995605Q91.50523587646484,10.631721007995605,92.91303587646485,10.000041007995605Z" fill-rule="evenodd" fill="#141B34" fill-opacity="1"/></g><g><path d="M84.7916725431218,16.25003799255371Q84.7916725431218,16.18848799255371,84.77966254312182,16.128107992553712Q84.76765254312181,16.06773799255371,84.74409254312181,16.01086799255371Q84.7205325431218,15.95398799255371,84.68633254312181,15.902807992553711Q84.65213254312181,15.851627992553711,84.60861254312181,15.80809799255371Q84.5650825431218,15.764567992553712,84.51390254312182,15.730367992553711Q84.46271254312181,15.69617799255371,84.4058425431218,15.672617992553711Q84.3489725431218,15.649057992553711,84.28860254312181,15.637047992553711Q84.2282225431218,15.625037992553711,84.1666725431218,15.625037992553711Q84.09406254312181,15.625037992553711,83.87715254312181,15.49075799255371Q83.59703254312181,15.317357992553712,83.30652254312182,15.02684999255371Q83.0160225431218,14.736344992553711,82.8426125431218,14.45622599255371Q82.70833254312181,14.239312192553712,82.70833254312181,14.166707992553711Q82.70833254312181,14.105150892553711,82.69632254312181,14.044776992553711Q82.6843125431218,13.98440199255371,82.6607625431218,13.927530992553711Q82.63720254312182,13.87065999255371,82.6030025431218,13.81947699255371Q82.5688025431218,13.76829399255371,82.52527254312182,13.724765992553712Q82.48175254312181,13.68123899255371,82.43056254312181,13.647039992553712Q82.3793825431218,13.612839992553711,82.3225125431218,13.589282992553711Q82.26564254312181,13.56572599255371,82.2052625431218,13.553716992553712Q82.14489254312181,13.541707992553711,82.08333254312181,13.541707992553711Q82.02178254312182,13.541707992553711,81.9614025431218,13.553716992553712Q81.90103254312181,13.56572599255371,81.84416254312181,13.589282992553711Q81.7872825431218,13.612839992553711,81.7361025431218,13.647039992553712Q81.68492254312181,13.68123899255371,81.64139254312181,13.724765992553712Q81.5978625431218,13.76829399255371,81.56366254312181,13.81947699255371Q81.52947254312181,13.87065999255371,81.50591254312181,13.927530992553711Q81.4823525431218,13.98440199255371,81.4703425431218,14.044776992553711Q81.45833254312181,14.105150892553711,81.45833254312181,14.166707992553711Q81.45833254312181,14.239311592553712,81.32405254312181,14.45622599255371Q81.15065254312181,14.73634599255371,80.8601445431218,15.02684999255371Q80.56963954312181,15.317357992553712,80.28952054312181,15.49075799255371Q80.0726063431218,15.625037992553711,80.00000254312181,15.625037992553711Q79.93844544312181,15.625037992553711,79.8780715431218,15.637047992553711Q79.81769654312181,15.649057992553711,79.76082554312181,15.672617992553711Q79.70395454312181,15.69617799255371,79.65277154312182,15.730367992553711Q79.6015885431218,15.764567992553712,79.55806054312181,15.80809799255371Q79.51453354312181,15.851627992553711,79.48033454312181,15.902807992553711Q79.44613454312181,15.95398799255371,79.4225775431218,16.01086799255371Q79.39902054312181,16.06773799255371,79.38701154312182,16.128107992553712Q79.37500254312181,16.18848799255371,79.37500254312181,16.25003799255371Q79.37500254312181,16.31159799255371,79.38701154312182,16.37196799255371Q79.39902054312181,16.432347992553712,79.4225775431218,16.489217992553712Q79.44613454312181,16.546087992553712,79.48033454312181,16.59726799255371Q79.51453354312181,16.64845799255371,79.55806054312181,16.69197799255371Q79.6015885431218,16.73550799255371,79.65277154312182,16.769707992553712Q79.70395454312181,16.80390799255371,79.76082554312181,16.82746799255371Q79.81769654312181,16.85101799255371,79.8780715431218,16.86302799255371Q79.93844544312181,16.87503799255371,80.00000254312181,16.87503799255371Q80.0726061431218,16.87503799255371,80.28952054312181,17.00931799255371Q80.56963954312181,17.182727992553712,80.8601445431218,17.47322799255371Q81.15065254312181,17.76373799255371,81.32405254312181,18.04385799255371Q81.45833254312181,18.26076799255371,81.45833254312181,18.33337799255371Q81.45833254312181,18.39492799255371,81.4703425431218,18.45530799255371Q81.4823525431218,18.515677992553712,81.50591254312181,18.572547992553712Q81.52947254312181,18.629417992553712,81.56366254312181,18.68060799255371Q81.5978625431218,18.731787992553713,81.64139254312181,18.77531799255371Q81.68492254312181,18.81883799255371,81.7361025431218,18.85303799255371Q81.7872825431218,18.88723799255371,81.84416254312181,18.91079799255371Q81.90103254312181,18.93435799255371,81.9614025431218,18.94636799255371Q82.02178254312182,18.95837799255371,82.08333254312181,18.95837799255371Q82.14489254312181,18.95837799255371,82.2052625431218,18.94636799255371Q82.26564254312181,18.93435799255371,82.3225125431218,18.91079799255371Q82.3793825431218,18.88723799255371,82.43056254312181,18.85303799255371Q82.48175254312181,18.81883799255371,82.52527254312182,18.77531799255371Q82.5688025431218,18.731787992553713,82.6030025431218,18.68060799255371Q82.63720254312182,18.629417992553712,82.6607625431218,18.572547992553712Q82.6843125431218,18.515677992553712,82.69632254312181,18.45530799255371Q82.70833254312181,18.39492799255371,82.70833254312181,18.33337799255371Q82.70833254312181,18.26076799255371,82.8426125431218,18.04385799255371Q83.0160225431218,17.76373799255371,83.30652254312182,17.47322799255371Q83.59703254312181,17.182727992553712,83.87715254312181,17.00931799255371Q84.09406254312181,16.87503799255371,84.1666725431218,16.87503799255371Q84.2282225431218,16.87503799255371,84.28860254312181,16.86302799255371Q84.3489725431218,16.85101799255371,84.4058425431218,16.82746799255371Q84.46271254312181,16.80390799255371,84.51390254312182,16.769707992553712Q84.5650825431218,16.73550799255371,84.60861254312181,16.69197799255371Q84.65213254312181,16.64845799255371,84.68633254312181,16.59726799255371Q84.7205325431218,16.546087992553712,84.74409254312181,16.489217992553712Q84.76765254312181,16.432347992553712,84.77966254312182,16.37196799255371Q84.7916725431218,16.31159799255371,84.7916725431218,16.25003799255371ZM82.08333254312181,16.95828799255371Q82.23466254312181,16.77732799255371,82.42264254312181,16.589347992553712Q82.6106225431218,16.401377992553712,82.7915825431218,16.25003799255371Q82.6106225431218,16.09870799255371,82.42264254312181,15.91072799255371Q82.23466254312181,15.72275799255371,82.08333254312181,15.541797992553711Q81.93200254312181,15.72275799255371,81.74402254312182,15.91072799255371Q81.55605254312181,16.09870799255371,81.37509254312181,16.25003799255371Q81.55605254312181,16.401377992553712,81.74402254312182,16.589347992553712Q81.93200254312181,16.77732799255371,82.08333254312181,16.95828799255371Z" fill-rule="evenodd" fill="#141B34" fill-opacity="1"/></g><g><path d="M97.29166889190674,4.166707674663485Q97.29166889190674,4.105147674663485,97.27965889190673,4.044777674663485Q97.26764889190673,3.9843976746634846,97.24408889190674,3.9275276746634846Q97.22053889190674,3.8706576746634846,97.18633889190674,3.8194776746634846Q97.15213889190674,3.7682976746634846,97.10860889190674,3.7247676746634846Q97.06507889190674,3.681237674663485,97.01389889190673,3.6470376746634847Q96.96271889190673,3.612837674663485,96.90584889190674,3.5892876746634848Q96.84897889190674,3.565727674663485,96.78859889190674,3.553717674663485Q96.72822889190674,3.541707674663485,96.66666889190674,3.541707674663485Q96.54398889190674,3.541707674663485,96.25344889190674,3.3618576746634847Q95.90496889190673,3.146127674663485,95.54610889190674,2.787267674663485Q95.18724889190673,2.4284016746634847,94.97151889190674,2.079923674663485Q94.79166889190674,1.7893916746634848,94.79166889190674,1.6667076746634848Q94.79166889190674,1.6051505746634849,94.77965889190673,1.5447766746634848Q94.76764889190673,1.4844016746634847,94.74408889190674,1.4275306746634848Q94.72053889190674,1.370659674663485,94.68633889190674,1.3194766746634847Q94.65213889190674,1.2682936746634847,94.60860889190674,1.2247656746634847Q94.56507889190674,1.1812386746634849,94.51389889190673,1.1470396746634848Q94.46271889190673,1.1128396746634848,94.40584889190674,1.089282674663485Q94.34897889190674,1.0657256746634847,94.28859889190674,1.0537166746634847Q94.22822889190674,1.0417076746634848,94.16666889190674,1.0417076746634848Q94.10510889190674,1.0417076746634848,94.04473889190673,1.0537166746634847Q93.98435889190674,1.0657256746634847,93.92748889190673,1.089282674663485Q93.87061889190674,1.1128396746634848,93.81943889190674,1.1470396746634848Q93.76825889190674,1.1812386746634849,93.72472889190674,1.2247656746634847Q93.68119889190673,1.2682936746634847,93.64699889190673,1.3194766746634847Q93.61279889190673,1.370659674663485,93.58923889190673,1.4275306746634848Q93.56568889190673,1.4844016746634847,93.55367889190674,1.5447766746634848Q93.54166889190674,1.6051505746634849,93.54166889190674,1.6667076746634848Q93.54166889190674,1.7893916746634848,93.36181889190674,2.079923674663485Q93.14608889190674,2.4284016746634847,92.78722889190674,2.787267674663485Q92.42836389190674,3.146127674663485,92.07988489190674,3.3618576746634847Q91.78935289190674,3.541707674663485,91.66666889190674,3.541707674663485Q91.60511179190674,3.541707674663485,91.54473789190673,3.553717674663485Q91.48436289190674,3.565727674663485,91.42749189190674,3.5892776746634847Q91.37062089190674,3.612837674663485,91.31943789190674,3.6470376746634847Q91.26825489190674,3.681237674663485,91.22472689190674,3.7247676746634846Q91.18119989190674,3.7682976746634846,91.14700089190674,3.8194776746634846Q91.11280089190674,3.8706576746634846,91.08924389190673,3.9275276746634846Q91.06568689190674,3.9843976746634846,91.05367789190674,4.044777674663485Q91.04166889190674,4.105147674663485,91.04166889190674,4.166707674663485Q91.04166889190674,4.228267674663485,91.05367789190674,4.288637674663485Q91.06568689190674,4.349017674663485,91.08924389190673,4.405887674663485Q91.11280089190674,4.462757674663485,91.14700089190674,4.5139376746634845Q91.18119989190674,4.565117674663485,91.22472689190674,4.6086476746634855Q91.26825489190674,4.652177674663484,91.31943789190674,4.686377674663484Q91.37062089190674,4.720577674663485,91.42749189190674,4.744127674663485Q91.48436289190674,4.767687674663485,91.54473789190673,4.779697674663485Q91.60511179190674,4.791707674663485,91.66666889190674,4.791707674663485Q91.78935289190674,4.791707674663485,92.07988489190674,4.971557674663485Q92.42836389190674,5.187287674663485,92.78722889190674,5.5461476746634855Q93.14608889190674,5.9050076746634845,93.36181889190674,6.253487674663485Q93.54166889190674,6.544027674663485,93.54166889190674,6.666707674663485Q93.54166889190674,6.728267674663485,93.55367889190674,6.788637674663485Q93.56568889190673,6.849017674663485,93.58923889190673,6.905887674663485Q93.61279889190673,6.962757674663485,93.64699889190673,7.0139376746634845Q93.68119889190673,7.065117674663485,93.72472889190674,7.108647674663485Q93.76825889190674,7.152177674663485,93.81943889190674,7.186377674663484Q93.87061889190674,7.220577674663485,93.92748889190673,7.244127674663485Q93.98435889190674,7.267687674663485,94.04473889190673,7.279697674663485Q94.10510889190674,7.291707674663485,94.16666889190674,7.291707674663485Q94.22822889190674,7.291707674663485,94.28859889190674,7.279697674663485Q94.34897889190674,7.267687674663485,94.40584889190674,7.244127674663485Q94.46271889190673,7.220577674663485,94.51389889190673,7.186377674663484Q94.56507889190674,7.152177674663485,94.60860889190674,7.108647674663485Q94.65213889190674,7.065117674663485,94.68633889190674,7.0139376746634845Q94.72053889190674,6.962757674663485,94.74408889190674,6.905887674663485Q94.76764889190673,6.849017674663485,94.77965889190673,6.788637674663485Q94.79166889190674,6.728267674663485,94.79166889190674,6.666707674663485Q94.79166889190674,6.544027674663485,94.97151889190674,6.253487674663485Q95.18724889190673,5.9050076746634845,95.54610889190674,5.5461476746634855Q95.90497889190674,5.187287674663485,96.25344889190674,4.971557674663485Q96.54398889190674,4.791707674663485,96.66666889190674,4.791707674663485Q96.72822889190674,4.791707674663485,96.78859889190674,4.779697674663485Q96.84896889190674,4.767687674663485,96.90584889190674,4.744127674663485Q96.96271889190673,4.720577674663485,97.01389889190673,4.686377674663484Q97.06507889190674,4.652177674663484,97.10860889190674,4.6086476746634855Q97.15213889190674,4.565117674663485,97.18633889190674,4.5139376746634845Q97.22053889190674,4.462757674663485,97.24408889190674,4.405887674663485Q97.26764889190673,4.349017674663485,97.27965889190673,4.288637674663485Q97.29166889190674,4.228267674663485,97.29166889190674,4.166707674663485ZM95.21443889190674,4.166707674663485Q94.94591889190674,3.954837674663485,94.66222889190674,3.671147674663485Q94.37853889190674,3.3874576746634846,94.16666889190674,3.118937674663485Q93.95479889190673,3.3874576746634846,93.67110889190674,3.671147674663485Q93.38741889190673,3.954837674663485,93.11889889190674,4.166707674663485Q93.38741889190673,4.378577674663484,93.67110889190674,4.662267674663484Q93.95479889190673,4.945957674663485,94.16666889190674,5.214477674663485Q94.37853889190674,4.945957674663485,94.66222889190674,4.662267674663484Q94.94591889190674,4.378577674663484,95.21443889190674,4.166707674663485Z" fill-rule="evenodd" fill="#141B34" fill-opacity="1"/></g></g></g></svg>