<svg width="20" height="20" viewBox="0 0 20 20" fill="none" xmlns="http://www.w3.org/2000/svg">
<path d="M1.6665 9.16665C1.6665 10.0871 2.4127 10.8333 3.33317 10.8333C4.71388 10.8333 5.83317 9.71402 5.83317 8.33331V4.99998C5.83317 3.61927 4.71388 2.49998 3.33317 2.49998C2.4127 2.49998 1.6665 3.24617 1.6665 4.16665V9.16665Z" stroke="#94A3B8" stroke-width="1.25" stroke-linecap="round" stroke-linejoin="round"/>
<path d="M12.8991 13.0781L12.6772 12.3614C12.4954 11.7741 12.4044 11.4804 12.4744 11.2485C12.5309 11.0609 12.6551 10.8992 12.8243 10.7928C13.0335 10.6612 13.3499 10.6612 13.9828 10.6612H14.3194C16.4611 10.6612 17.532 10.6612 18.0378 10.0273C18.0956 9.95482 18.147 9.87778 18.1915 9.79697C18.5806 9.0899 18.1382 8.13741 17.2535 6.23243C16.4416 4.48428 16.0356 3.61021 15.2819 3.09573C15.2089 3.04592 15.1339 2.99894 15.0571 2.9549C14.2635 2.50002 13.2803 2.50002 11.3138 2.50002H10.8873C8.50493 2.50002 7.31373 2.50002 6.57361 3.21713C5.8335 3.93424 5.8335 5.08841 5.8335 7.39675V8.20807C5.8335 9.42116 5.8335 10.0277 6.04878 10.5829C6.26406 11.138 6.67629 11.5945 7.50074 12.5074L10.9103 16.2829C10.9958 16.3776 11.0385 16.4249 11.0762 16.4577C11.4281 16.764 11.9712 16.7295 12.2788 16.3814C12.3118 16.3441 12.3478 16.2918 12.4198 16.1871C12.5325 16.0233 12.5889 15.9414 12.638 15.8603C13.0775 15.1341 13.2105 14.2714 13.0092 13.4524C12.9867 13.3609 12.9575 13.2666 12.8991 13.0781Z" stroke="#94A3B8" stroke-width="1.25" stroke-linecap="round" stroke-linejoin="round"/>
</svg>
